<?xml version="1.0" encoding="UTF-8"?>
<svg version="1.1" xmlns="http://www.w3.org/2000/svg" width="992" height="1084">
<path d="M0 0 C1.16782516 -0.0049649 2.33565033 -0.00992981 3.53886414 -0.01504517 C7.36958427 -0.0295432 11.20026289 -0.03645088 15.03100586 -0.04199219 C16.3677059 -0.04473526 17.70440571 -0.04759221 19.04110527 -0.05056 C25.33569082 -0.06420205 31.63026364 -0.07388116 37.92486292 -0.07776189 C45.10295038 -0.08221569 52.28084487 -0.0996517 59.45887381 -0.12876248 C65.0628921 -0.15067096 70.66685735 -0.1604816 76.27091783 -0.16180301 C79.59110258 -0.16283182 82.9109633 -0.16985755 86.23112679 -0.18662262 C108.59020403 -0.29139461 130.88206037 0.99932717 152.80834961 5.66113281 C153.97664307 5.90686035 155.14493652 6.15258789 156.34863281 6.40576172 C176.90845944 10.98665201 197.66721538 17.84882096 216.5847168 27.13232422 C218.89081122 28.2628363 221.21245989 29.35761598 223.53491211 30.45410156 C241.12701032 38.88025508 257.19895837 49.34308179 272.68334961 61.16113281 C273.55419189 61.8156543 273.55419189 61.8156543 274.44262695 62.48339844 C284.12019598 69.76382094 292.99214141 77.73550775 301.68334961 86.16113281 C302.3354541 86.79132324 302.98755859 87.42151367 303.65942383 88.07080078 C311.5399503 95.71914871 318.9352169 103.47796387 325.68334961 112.16113281 C326.91891602 113.67126953 326.91891602 113.67126953 328.17944336 115.21191406 C364.14286701 159.36057323 387.11783063 213.63151598 393.68334961 270.16113281 C393.80592746 271.16559039 393.80592746 271.16559039 393.93098164 272.19034004 C394.71696479 279.17883192 394.83776778 286.09672986 394.84448242 293.12451172 C394.84944733 294.38464584 394.85441223 295.64477997 394.85952759 296.94309998 C394.87253999 300.37582752 394.87907595 303.80853559 394.88353825 307.24128389 C394.8864906 309.39938768 394.89059948 311.55748642 394.89504242 313.71558762 C394.90869565 320.50620038 394.91836968 327.29680126 394.92224431 334.08742678 C394.92670265 341.85305313 394.94415542 349.61850151 394.97324491 357.38407385 C394.9950912 363.43216241 395.00496082 369.48020179 395.00628543 375.52832925 C395.0073184 379.11835835 395.01289303 382.70821979 395.03110504 386.29820633 C395.33600167 450.11810283 376.28730167 512.8814889 337.68334961 564.16113281 C337.28438477 564.69754395 336.88541992 565.23395508 336.47436523 565.78662109 C325.36161609 580.70651578 313.18727921 596.30784624 298.87475586 608.27832031 C296.63426185 610.20330804 294.49922304 612.22154518 292.3605957 614.25830078 C250.41213841 653.94887316 193.58626028 680.5341859 136.68334961 689.16113281 C135.64812164 689.32858002 134.61289368 689.49602722 133.54629517 689.66854858 C119.23792398 691.6827458 104.86457896 691.47295854 90.44700575 691.46271539 C87.41621198 691.46163127 84.38543851 691.4665655 81.35464919 691.47132081 C74.18636793 691.48234817 67.01813911 691.48289276 59.84985352 691.47680664 C52.52390506 691.47078094 45.19814936 691.48305782 37.87223375 691.50437671 C31.521678 691.5221585 25.17118265 691.52796809 18.82060301 691.52473897 C15.05466873 691.52295114 11.28887174 691.52530454 7.52296066 691.53945351 C-57.34508004 691.76256003 -118.14084043 671.92733586 -170.31665039 633.16113281 C-171.1792749 632.52594727 -171.1792749 632.52594727 -172.05932617 631.87792969 C-192.09548002 617.06936386 -211.07604869 599.91396235 -226.31665039 580.16113281 C-227.75224787 578.45120038 -229.18983238 576.7429347 -230.62915039 575.03613281 C-276.7931455 518.37303465 -296.46282658 449.2698412 -296.48461914 377.09472656 C-296.48784069 374.56812014 -296.4912054 372.04151389 -296.4947052 369.51490784 C-296.50066583 364.23576558 -296.50259164 358.95663505 -296.50195312 353.67749023 C-296.50142041 348.30408761 -296.50843898 342.93075715 -296.52246094 337.55737305 C-296.53928988 331.0107233 -296.54600353 324.46413791 -296.5453434 317.91746712 C-296.54650921 315.44878841 -296.55085044 312.98010876 -296.55867577 310.51144218 C-296.6133055 291.49626622 -296.02514768 272.53531329 -292.56665039 253.78613281 C-292.39601074 252.84664795 -292.22537109 251.90716309 -292.04956055 250.93920898 C-281.40158116 194.23613426 -255.28666686 142.80068542 -216.30102539 100.32910156 C-214.39107656 98.24244487 -212.53719692 96.11724327 -210.69165039 93.97363281 C-205.73804323 88.30260669 -200.42273622 83.12314532 -194.71118164 78.21972656 C-192.90311421 76.66531949 -191.11163731 75.09158526 -189.32836914 73.50878906 C-137.84924227 28.09140554 -68.87986104 0.07169737 0 0 Z " fill="#0DAE5C" transform="translate(443.316650390625,192.8388671875)"/>
<path d="M0 0 C6.10675696 3.06387119 9.05748127 7.14631595 11.53515625 13.453125 C12.93832122 17.7720192 14.16166608 22.12464436 15.375 26.5 C16.06273824 28.92608308 16.75164001 31.35183648 17.44140625 33.77734375 C18.93858205 39.05539647 20.424338 44.33654513 21.8984375 49.62109375 C22.18167122 50.63607185 22.18167122 50.63607185 22.47062683 51.67155457 C23.35199898 54.83071115 24.23297962 57.98997555 25.11279297 61.14956665 C28.65895546 73.88002 32.24955373 86.59717577 35.890625 99.30078125 C36.08370365 99.97462797 36.2767823 100.64847469 36.47571182 101.34274101 C38.26287244 107.57953255 40.05125235 113.81597319 41.84277344 120.05151367 C42.83814862 123.51633348 43.83151278 126.98172479 44.8236618 130.44746971 C45.37106133 132.35751751 45.92062857 134.26694365 46.47027588 136.17634583 C48.34472212 142.72731678 50.10476434 149.29064254 51.73095703 155.90757751 C52.50246927 159.01309339 53.3541354 162.08995947 54.2421875 165.1640625 C54.57089844 166.30746094 54.89960938 167.45085937 55.23828125 168.62890625 C55.57214844 169.78261719 55.90601563 170.93632813 56.25 172.125 C58.42874313 179.67740208 60.58500639 187.23408828 62.67919922 194.81030273 C65.28688334 204.21884556 67.95669068 213.60906574 70.640625 222.99609375 C71.12436695 224.68952864 71.60806975 226.38297471 72.09173584 228.07643127 C73.09295634 231.58143131 74.09464267 235.08629776 75.09667969 238.59106445 C76.38090428 243.08296925 77.66391873 247.5752187 78.94659805 252.06756496 C79.93952069 255.54459676 80.93306954 259.02144936 81.92681122 262.49824715 C82.40066659 264.15640794 82.87432653 265.81462459 83.34778595 267.47289848 C84.00498217 269.77435164 84.66302129 272.07556212 85.32128906 274.37670898 C85.51555481 275.05765121 85.70982056 275.73859344 85.90997314 276.44017029 C86.68486027 279.14618062 87.48472534 281.82917603 88.375 284.5 C89.7085153 279.84531341 91.04105786 275.19034969 92.37280273 270.53515625 C92.82339932 268.96054048 93.27423528 267.38599319 93.7253418 265.81152344 C97.49012922 252.67052242 101.17740832 239.50939032 104.79516602 226.32714844 C106.03444906 221.81532617 107.28813226 217.30768002 108.54956055 212.80200195 C109.06129885 210.96449301 109.56807902 209.12559655 110.07006836 207.28540039 C114.69682485 190.34851362 119.779758 175.26525401 135.54296875 165.546875 C138.45503819 164.05647425 141.33518055 162.70667798 144.375 161.5 C145.58385864 160.97962158 145.58385864 160.97962158 146.81713867 160.44873047 C151.92575401 159.08647978 156.85943661 159.1948064 162.125 159.19921875 C163.25647461 159.19493362 164.38794922 159.1906485 165.55371094 159.18623352 C167.94074841 159.18050257 170.32780335 159.17998083 172.71484375 159.18432617 C176.36228223 159.18748897 180.00891153 159.16400061 183.65625 159.13867188 C185.97916565 159.13639902 188.30208347 159.13569532 190.625 159.13671875 C191.71264648 159.127509 192.80029297 159.11829926 193.92089844 159.10881042 C200.26886171 159.14752744 205.15549764 159.49462131 210.01953125 164.03515625 C214.18983424 169.48862939 215.12353683 172.69807833 214.375 179.5 C213.34928378 183.23047109 211.90529957 186.33805361 208.77005005 188.71862793 C202.93423063 191.80238184 197.82354625 192.043299 191.3046875 191.96875 C190.26482697 191.97579956 189.22496643 191.98284912 188.15359497 191.9901123 C184.85214277 192.01205236 181.55150335 192.00916147 178.25 192 C173.89279225 191.98794774 169.53678956 192.0016573 165.1796875 192.03125 C164.18581024 192.01993042 163.19193298 192.00861084 162.16793823 191.99694824 C156.43032231 192.03873705 152.81044083 192.46605635 148.375 196.5 C143.41980038 204.08873229 141.92368087 214.84066253 139.5625 223.5625 C139.15875526 225.03986454 138.75446029 226.51707883 138.34960938 227.99414062 C137.71757565 230.30028881 137.08598326 232.60654885 136.45637512 234.9133606 C134.43977437 242.2946273 132.37157973 249.66107862 130.30145264 257.02748108 C128.31916217 264.09442476 126.36357205 271.16828069 124.4235754 278.24691677 C122.72227739 284.45279693 121.00885846 290.65526333 119.28870487 296.85594273 C118.17998269 300.85497646 117.07761608 304.85556765 115.98803711 308.85986328 C114.91138805 312.81549569 113.81879758 316.76641277 112.71533394 320.71464539 C112.30425587 322.19606424 111.89875112 323.67904304 111.49934196 325.16365051 C106.22315419 344.7416356 106.22315419 344.7416356 97.75 350.0625 C92.45545494 352.24320343 86.97703429 352.49390931 81.375 351.5 C74.94643883 348.45269503 70.68916741 343.14816305 68.28611755 336.47723389 C68.00663773 335.40805725 67.7271579 334.33888062 67.43920898 333.23730469 C67.10807098 332.00604858 66.77693298 330.77479248 66.4357605 329.50622559 C66.2639967 328.85347153 66.09223289 328.20071747 65.91526413 327.52818298 C64.98040222 324.01865697 63.97510721 320.52915696 62.98071289 317.03613281 C62.55198072 315.51861598 62.1236922 314.00097375 61.69581604 312.48321533 C61.47629335 311.70489601 61.25677067 310.92657669 61.03059578 310.12467194 C60.80522573 309.32556145 60.57985569 308.52645096 60.34765625 307.703125 C59.87211604 306.01747354 59.39656549 304.331825 58.92100525 302.6461792 C57.9300048 299.13330543 56.93918487 295.6203808 55.94848633 292.10742188 C54.69397995 287.65910106 53.4389347 283.21093248 52.18373966 278.76280594 C51.20278338 275.28622511 50.22216499 271.80954904 49.24163628 268.3328476 C48.77977055 266.69536958 48.3177962 265.0579222 47.85569954 263.42050934 C45.03069431 253.40956982 42.22765123 243.39282656 39.44946289 233.36878967 C38.0906884 228.46925548 36.70878036 223.57647027 35.3125 218.6875 C34.96735352 217.47030273 34.96735352 217.47030273 34.61523438 216.22851562 C33.29247494 211.59342161 31.90450927 206.9856833 30.4609375 202.38671875 C28.30386353 195.4126395 26.4550727 188.36897666 24.62710571 181.30386353 C21.60677673 169.6481461 18.43175676 158.07702395 14.83325195 146.58422852 C12.47313175 138.99040927 10.46454982 131.32806413 8.50097656 123.62353516 C6.79596196 116.97989682 4.83783501 110.48204634 2.734375 103.953125 C-0.12522145 94.81806158 -2.42866496 85.50694555 -4.88427734 76.25732422 C-5.76108289 72.99343436 -6.67998103 69.7447203 -7.625 66.5 C-9.17878471 69.40634388 -10.22693353 72.22854813 -11.13378906 75.39428711 C-11.41458313 76.36728256 -11.6953772 77.34027802 -11.98468018 78.34275818 C-12.28364197 79.39367142 -12.58260376 80.44458466 -12.890625 81.52734375 C-13.20650574 82.62607315 -13.52238647 83.72480255 -13.84783936 84.85682678 C-14.86056163 88.38267735 -15.8678473 91.91005493 -16.875 95.4375 C-17.5374047 97.74684685 -18.20016159 100.05609272 -18.86328125 102.36523438 C-20.78899939 109.07535561 -22.70760781 115.78749577 -24.625 122.5 C-25.19648747 124.49919927 -25.76801877 126.49838602 -26.33959961 128.49755859 C-26.86573034 130.33821395 -27.39185371 132.17887141 -27.91796875 134.01953125 C-28.16415451 134.88055954 -28.41034027 135.74158783 -28.66398621 136.62870789 C-29.89988525 140.95337908 -31.12723721 145.2803052 -32.34765625 149.609375 C-32.79345508 151.15648529 -33.24000733 152.70337879 -33.6875 154.25 C-33.90470703 155.03375 -34.12191406 155.8175 -34.34570312 156.625 C-37.66979769 168.00037176 -44.03890244 178.86884004 -54.5546875 184.875 C-64.63093481 190.19775358 -72.73653344 191.65913053 -84.15625 191.73828125 C-85.26552856 191.746353 -86.37480713 191.75442474 -87.5177002 191.76274109 C-89.85765031 191.77653709 -92.19762017 191.78727917 -94.53759766 191.79516602 C-96.92925922 191.8067223 -99.32089428 191.82723097 -101.71240234 191.85668945 C-105.17302935 191.89929863 -108.6328935 191.9155226 -112.09375 191.92578125 C-113.69240906 191.95204338 -113.69240906 191.95204338 -115.32336426 191.97883606 C-122.59142584 191.95759917 -125.97829684 190.90924342 -131.3046875 185.9296875 C-134.56480241 181.68940732 -135.33829925 178.19796408 -135.046875 172.86328125 C-134.01654421 167.09152082 -130.21681751 163.76260718 -125.625 160.5 C-123.24053625 159.30776812 -121.74839241 159.36310974 -119.08691406 159.34228516 C-118.14543518 159.33202301 -117.2039563 159.32176086 -116.23394775 159.31118774 C-115.21315125 159.30388641 -114.19235474 159.29658508 -113.140625 159.2890625 C-110.98697164 159.26098792 -108.83332591 159.23232342 -106.6796875 159.203125 C-103.27832296 159.16189634 -99.87709984 159.12501629 -96.47558594 159.09863281 C-93.19696473 159.07098524 -89.91899459 159.02510514 -86.640625 158.9765625 C-85.62792542 158.97330963 -84.61522583 158.97005676 -83.57183838 158.96670532 C-78.24421775 158.87419824 -74.11150498 158.70051381 -69.625 155.5 C-66.51075936 151.56994594 -65.42728992 146.98203912 -64.13671875 142.21875 C-63.9128952 141.41641937 -63.68907166 140.61408875 -63.45846558 139.78744507 C-62.73637106 137.19345529 -62.02447502 134.59678346 -61.3125 132 C-60.81776966 130.2173902 -60.32224365 128.43500103 -59.82592773 126.65283203 C-58.85507206 123.16427878 -57.88742967 119.67486438 -56.92285156 116.18457031 C-55.37076722 110.57383745 -53.78904369 104.97180979 -52.1875 99.375 C-51.95369629 98.55539795 -51.71989258 97.7357959 -51.47900391 96.89135742 C-50.27148489 92.67919495 -49.00868123 88.49073564 -47.6875 84.3125 C-45.78343648 78.21172505 -44.14417536 72.04952235 -42.5 65.875 C-39.76884733 55.65212277 -36.97299012 45.4490324 -34.09454346 35.2666626 C-33.66093054 33.72954207 -33.22968662 32.19175104 -32.80096436 30.65325928 C-25.95622226 6.1176151 -25.95622226 6.1176151 -18.875 1.3125 C-12.44633902 -2.3036218 -6.83787091 -2.56563331 0 0 Z " fill="#FAFEFC" transform="translate(452.625,363.5)"/>
<path d="M0 0 C2.7395481 0.00221125 5.47909437 0.0016949 8.21864319 0.00138855 C13.91588688 0.00231646 19.61307633 0.01089063 25.31030273 0.0246582 C31.88509716 0.04048821 38.45983292 0.04565193 45.03464502 0.04492265 C52.07815605 0.04424715 59.12164471 0.05117456 66.16514897 0.06036925 C68.18210578 0.06249432 70.19905895 0.0632095 72.21601677 0.06360817 C75.96557434 0.06577243 79.71505791 0.07451513 83.46459961 0.08520508 C85.12974106 0.0845253 85.12974106 0.0845253 86.82852173 0.08383179 C88.36050957 0.09022926 88.36050957 0.09022926 89.92344666 0.09675598 C91.24919661 0.09926975 91.24919661 0.09926975 92.60172939 0.1018343 C95.18489185 0.23496468 97.57756516 0.66124232 100.09765625 1.23046875 C100.09765625 1.56046875 100.09765625 1.89046875 100.09765625 2.23046875 C99.38828478 2.23470069 98.67891331 2.23893263 97.94804573 2.24329281 C80.70611986 2.34649219 63.46423675 2.45511374 46.2223835 2.56980801 C37.88443541 2.62514129 29.54648305 2.67862345 21.20849609 2.7277832 C13.94309768 2.77062376 6.67773079 2.81690142 -0.58761895 2.8673473 C-4.43635134 2.89394928 -8.28507747 2.91880238 -12.13384628 2.93954277 C-15.75351176 2.95910279 -19.37311724 2.98324463 -22.99272919 3.01095963 C-24.96041341 3.02481614 -26.92813028 3.03376169 -28.89584351 3.04258728 C-30.05974609 3.0523761 -31.22364868 3.06216492 -32.42282104 3.07225037 C-33.43863691 3.07870292 -34.45445278 3.08515547 -35.50105095 3.09180355 C-37.915842 3.07267368 -37.915842 3.07267368 -39.90234375 4.23046875 C-41.9428938 4.30112492 -43.98568632 4.31468851 -46.02734375 4.29296875 C-47.12304688 4.28394531 -48.21875 4.27492187 -49.34765625 4.265625 C-50.61222656 4.24822266 -50.61222656 4.24822266 -51.90234375 4.23046875 C-48.1760326 1.74626132 -44.86562572 1.53181783 -40.52124023 1.11987305 C-39.64520614 1.03558139 -38.76917204 0.95128973 -37.86659145 0.86444378 C-25.26936942 -0.21936929 -12.6326724 -0.03671554 0 0 Z " fill="#29A566" transform="translate(459.90234375,192.76953125)"/>
<path d="M0 0 C1.99708494 3.43974736 2.61185644 6.69448398 3.25390625 10.6015625 C3.57584961 12.54482422 3.57584961 12.54482422 3.90429688 14.52734375 C4.01249756 15.2013623 4.12069824 15.87538086 4.23217773 16.56982422 C4.55825834 18.59860955 4.89445151 20.62550905 5.23242188 22.65234375 C7.123079 34.1685871 8.14997835 45.28872131 8.16113281 56.96337891 C8.16609772 58.22351303 8.17106262 59.48364716 8.17617798 60.78196716 C8.18919038 64.2146947 8.19572634 67.64740278 8.20018864 71.08015108 C8.203141 73.23825487 8.20724988 75.3963536 8.21169281 77.5544548 C8.22534604 84.34506756 8.23502007 91.13566845 8.2388947 97.92629397 C8.24335304 105.69192032 8.26080581 113.45736869 8.2898953 121.22294104 C8.31174159 127.27102959 8.32161121 133.31906898 8.32293582 139.36719644 C8.32396879 142.95722553 8.32954342 146.54708698 8.34775543 150.13707352 C8.45113695 171.74713339 7.33443076 192.91092523 2.3125 214 C2.08755859 214.98871094 1.86261719 215.97742188 1.63085938 216.99609375 C1.09760088 219.33335438 0.55444882 221.6676954 0 224 C-0.33 224 -0.66 224 -1 224 C-0.76513841 221.60641064 -0.52717102 219.21319095 -0.28515625 216.8203125 C-0.10141234 215.00300973 0.07856702 213.18532043 0.25390625 211.3671875 C0.88741055 205.11258945 0.88741055 205.11258945 2 204 C2.20699563 202.50503158 2.36679259 201.0033408 2.5 199.5 C2.88888889 195.11111111 2.88888889 195.11111111 4 194 C4.21230963 191.22523107 4.37669503 188.46642867 4.5 185.6875 C4.56926454 184.14957075 4.64206945 182.61179608 4.71875 181.07421875 C4.74904297 180.38932373 4.77933594 179.70442871 4.81054688 178.9987793 C5 177 5 177 5.50390434 175.20326424 C6.07706242 172.65774972 6.12591741 170.35890856 6.12698364 167.74899292 C6.12980347 166.68620117 6.13262329 165.62340942 6.13552856 164.52841187 C6.13249222 162.78740707 6.13249222 162.78740707 6.12939453 161.01123047 C6.13202301 159.17174835 6.13202301 159.17174835 6.13470459 157.29510498 C6.13835126 153.93578888 6.13749725 150.57653438 6.1343255 147.21722174 C6.13179346 143.70276653 6.1341417 140.18831395 6.13571167 136.67385864 C6.13753041 130.77426684 6.13513429 124.87468756 6.13037109 118.97509766 C6.124924 112.14950842 6.12669556 105.32394903 6.1321975 98.49836051 C6.13673102 92.64012041 6.13737816 86.7818893 6.13475883 80.923648 C6.13319803 77.42372213 6.13299704 73.92381031 6.13629532 70.42388535 C6.13971228 66.52590518 6.13498041 62.62795865 6.12939453 58.72998047 C6.13141876 57.56526215 6.13344299 56.40054382 6.13552856 55.20053101 C6.13270874 54.14337891 6.12988892 53.08622681 6.12698364 51.99703979 C6.12660662 51.07491133 6.12622959 50.15278286 6.12584114 49.20271111 C6.14319163 46.95682491 6.14319163 46.95682491 5 45 C4.73464575 41.37349198 4.55555884 37.75316054 4.39453125 34.12109375 C4.2895814 29.92637012 4.2895814 29.92637012 3 26 C2.81809664 24.33688356 2.67866598 22.66899689 2.5625 21 C2.18178974 16.32094808 1.44998122 11.86196183 0.40234375 7.2890625 C-0.0319009 4.81850557 -0.06634494 2.50341578 0 0 Z " fill="#1CA15D" transform="translate(830,429)"/>
<path d="M0 0 C2.24993359 -0.02707139 4.49996095 -0.04642829 6.75 -0.0625 C8.00296875 -0.07410156 9.2559375 -0.08570313 10.546875 -0.09765625 C14 0 14 0 15.8962822 0.49621487 C18.35725506 1.0855532 20.58172694 1.13999186 23.11260986 1.15821838 C24.66064804 1.17290161 24.66064804 1.17290161 26.23995972 1.18788147 C27.36636871 1.19363693 28.49277771 1.1993924 29.65332031 1.20532227 C31.43909988 1.22017166 31.43909988 1.22017166 33.26095581 1.23532104 C36.52093297 1.26148406 39.78090509 1.28335633 43.04092503 1.30332303 C46.4495715 1.3252139 49.85817383 1.3525874 53.26678467 1.37937927 C59.71941653 1.42926427 66.17207295 1.47421863 72.62475276 1.51740164 C79.97177232 1.56680988 87.31874758 1.62171469 94.66572428 1.67708123 C109.77710822 1.7908369 124.88853391 1.89768987 140 2 C140 2.33 140 2.66 140 3 C123.66578531 3.04686634 107.33159267 3.08206019 90.99732685 3.10362434 C83.41185054 3.1139062 75.82641617 3.12790692 68.2409668 3.15087891 C61.62408947 3.17090797 55.00724254 3.18373885 48.39033574 3.18817699 C44.89164315 3.19076837 41.39303748 3.1967936 37.89437294 3.21146011 C33.974244 3.22775782 30.05419757 3.22797364 26.1340332 3.22705078 C24.993228 3.23424133 23.85242279 3.24143188 22.67704773 3.24884033 C14.95839918 3.22930814 7.59366393 2.36927133 0 1 C0 0.67 0 0.34 0 0 Z " fill="#1C9D5A" transform="translate(410,881)"/>
<path d="M0 0 C0.33 0 0.66 0 1 0 C1.16657665 7.15889941 0.71652946 14.08735995 -0.1875 21.1875 C-0.31552002 22.21037109 -0.44354004 23.23324219 -0.57543945 24.28710938 C-2.04421525 35.33460067 -4.42411294 46.16445848 -7 57 C-7.33 57 -7.66 57 -8 57 C-7.76513841 54.60641064 -7.52717102 52.21319095 -7.28515625 49.8203125 C-7.10141234 48.00300973 -6.92143298 46.18532043 -6.74609375 44.3671875 C-6.11258945 38.11258945 -6.11258945 38.11258945 -5 37 C-4.79300437 35.50503158 -4.63320741 34.0033408 -4.5 32.5 C-4.11111111 28.11111111 -4.11111111 28.11111111 -3 27 C-2.81184122 24.35084381 -2.67210073 21.71506191 -2.5625 19.0625 C-2.24650568 12.55492808 -1.60370562 6.3369727 0 0 Z " fill="#38AC70" transform="translate(837,596)"/>
<path d="M0 0 C3.15924539 5.50168985 3.55355227 11.95229668 4.5625 18.125 C4.67427582 18.79629944 4.78605164 19.46759888 4.9012146 20.15924072 C6.65541097 30.75541724 7.83979176 41.25148335 8 52 C7.67 52 7.34 52 7 52 C5.2504551 46.65220082 4.63689674 41.79492536 4.4375 36.1875 C4.44524273 30.9331813 4.44524273 30.9331813 3 26 C2.81809664 24.33688356 2.67866598 22.66899689 2.5625 21 C2.18178974 16.32094808 1.44998122 11.86196183 0.40234375 7.2890625 C-0.0319009 4.81850557 -0.06634494 2.50341578 0 0 Z " fill="#32A86B" transform="translate(830,429)"/>
<path d="M0 0 C0.99 0.33 1.98 0.66 3 1 C0.25303555 3.82141311 -2.50390843 6.6326518 -5.27026367 9.43505859 C-6.66922485 10.85643207 -8.06025836 12.28559411 -9.45117188 13.71484375 C-10.78051758 15.05869141 -10.78051758 15.05869141 -12.13671875 16.4296875 C-12.94842529 17.25710449 -13.76013184 18.08452148 -14.59643555 18.93701172 C-17.01004507 21.00862172 -18.99565916 22.02271247 -22 23 C-18.52735524 16.60848772 -13.1958516 11.9761089 -8 7 C-7.20980469 6.23945313 -6.41960937 5.47890625 -5.60546875 4.6953125 C-1.65754123 1.04769115 -1.65754123 1.04769115 0 0 Z " fill="#1EAA61" transform="translate(251,269)"/>
<path d="M0 0 C6.15234375 -0.09765625 6.15234375 -0.09765625 8 0 C8.33 0.33 8.66 0.66 9 1 C10.49496842 1.20699563 11.9966592 1.36679259 13.5 1.5 C17.88888889 1.88888889 17.88888889 1.88888889 19 3 C20.68183948 3.23287008 22.3712416 3.41264166 24.0625 3.5625 C25.44115234 3.68818359 25.44115234 3.68818359 26.84765625 3.81640625 C27.91306641 3.90728516 27.91306641 3.90728516 29 4 C27 6 27 6 25.21484375 6.1171875 C16.63904782 5.20518176 8.35226504 3.08322156 0 1 C0 0.67 0 0.34 0 0 Z " fill="#31A96C" transform="translate(377,875)"/>
<path d="M0 0 C0.33 0 0.66 0 1 0 C1.79836516 10.06827169 -0.61165509 19.30801108 -3 29 C-3.33 29 -3.66 29 -4 29 C-3.76513841 26.60641064 -3.52717102 24.21319095 -3.28515625 21.8203125 C-3.10141234 20.00300973 -2.92143298 18.18532043 -2.74609375 16.3671875 C-2.11258945 10.11258945 -2.11258945 10.11258945 -1 9 C-0.76807135 7.48530552 -0.58784762 5.96245438 -0.4375 4.4375 C-0.35371094 3.61121094 -0.26992188 2.78492188 -0.18359375 1.93359375 C-0.12300781 1.29550781 -0.06242188 0.65742187 0 0 Z " fill="#2EA769" transform="translate(833,624)"/>
<path d="M0 0 C14.78132118 -0.3690205 14.78132118 -0.3690205 21 2 C21 2.33 21 2.66 21 3 C18.06167355 2.88618103 15.1248935 2.75943449 12.1875 2.625 C10.93743164 2.57859375 10.93743164 2.57859375 9.66210938 2.53125 C8.85966797 2.49257813 8.05722656 2.45390625 7.23046875 2.4140625 C6.12288208 2.36693115 6.12288208 2.36693115 4.99291992 2.31884766 C3 2 3 2 0 0 Z " fill="#2FA96A" transform="translate(410,881)"/>
<path d="M0 0 C0.66 0.33 1.32 0.66 2 1 C0.89718873 2.27200971 -0.20730769 3.54255853 -1.3125 4.8125 C-1.92738281 5.52019531 -2.54226563 6.22789062 -3.17578125 6.95703125 C-6.44911047 10.6228796 -6.44911047 10.6228796 -8 12 C-8.66 12 -9.32 12 -10 12 C-10 12.66 -10 13.32 -10 14 C-10.66 13.67 -11.32 13.34 -12 13 C-8.13635705 8.51282966 -4.25209792 4.12324647 0 0 Z " fill="#E1FCF1" transform="translate(585,531)"/>
<path d="M0 0 C1.22506359 3.59699524 0.82116076 6.41420962 0.1875 10.125 C0.01605469 11.17945313 -0.15539062 12.23390625 -0.33203125 13.3203125 C-1 16 -1 16 -3 18 C-3.64767793 20.57061311 -3.64767793 20.57061311 -4 23 C-4.66 23 -5.32 23 -6 23 C-4.38911645 15.21406284 -2.23456312 7.62571782 0 0 Z " fill="#3CAE73" transform="translate(588,599)"/>
<path d="M0 0 C0.33 0 0.66 0 1 0 C1.31677048 5.91304888 0.84641718 10.71714343 -2 16 C-3.60546875 17.73046875 -3.60546875 17.73046875 -5 19 C-4.35561067 16.39546825 -3.7095496 13.7913709 -3.0625 11.1875 C-2.88009766 10.44951172 -2.69769531 9.71152344 -2.50976562 8.95117188 C-1.7577385 5.92939016 -0.98514427 2.95543282 0 0 Z " fill="#38AD72" transform="translate(594,578)"/>
<path d="M0 0 C1.15710222 4.62840887 0.51389867 6.66462114 -0.8125 11.1875 C-1.16957031 12.43917969 -1.52664063 13.69085937 -1.89453125 14.98046875 C-3 18 -3 18 -5 19 C-5.33 16.69 -5.66 14.38 -6 12 C-5.01 12 -4.02 12 -3 12 C-2.01 8.04 -1.02 4.08 0 0 Z " fill="#25A261" transform="translate(545,630)"/>
<path d="M0 0 C2.10916287 5.62443432 0.33667107 12.67758257 -2 18 C-2.99 18.33 -3.98 18.66 -5 19 C-4.35561067 16.39546825 -3.7095496 13.7913709 -3.0625 11.1875 C-2.88009766 10.44951172 -2.69769531 9.71152344 -2.50976562 8.95117188 C-1.7577385 5.92939016 -0.98514427 2.95543282 0 0 Z " fill="#3DAF75" transform="translate(435,458)"/>
<path d="M0 0 C2.3129482 2.3129482 2.49580975 3.47904875 3.125 6.625 C3.29257812 7.44226563 3.46015625 8.25953125 3.6328125 9.1015625 C3.81457031 10.04128906 3.81457031 10.04128906 4 11 C3.34 11 2.68 11 2 11 C1.34 10.01 0.68 9.02 0 8 C-0.33 8.99 -0.66 9.98 -1 11 C-1.66 11 -2.32 11 -3 11 C-2.01 7.37 -1.02 3.74 0 0 Z " fill="#33A66B" transform="translate(444,428)"/>
<path d="M0 0 C0 0.33 0 0.66 0 1 C-6.34823202 3.30844801 -12.29481414 3.19818283 -19 3 C-13.43482689 -0.71011541 -6.49854458 -0.11604544 0 0 Z " fill="#2EAA6B" transform="translate(427,194)"/>
<path d="M0 0 C1.76630091 4.71013576 0.86024137 9.97590266 -1.0625 14.5 C-1.371875 14.995 -1.68125 15.49 -2 16 C-2.99 15.67 -3.98 15.34 -5 15 C-4.54625 13.824375 -4.0925 12.64875 -3.625 11.4375 C-2.20671892 7.66661997 -1.05286822 3.88751343 0 0 Z " fill="#C1EED8" transform="translate(545,634)"/>
<path d="M0 0 C0 0.66 0 1.32 0 2 C-1.7015625 2.2165625 -1.7015625 2.2165625 -3.4375 2.4375 C-6.80777201 2.61171478 -6.80777201 2.61171478 -8 4 C-9.51928038 4.07179964 -11.04167482 4.08392007 -12.5625 4.0625 C-13.38878906 4.05347656 -14.21507812 4.04445312 -15.06640625 4.03515625 C-15.70449219 4.02355469 -16.34257812 4.01195312 -17 4 C-14.19547298 2.48300584 -11.6142698 1.54691437 -8.5 0.875 C-7.7471875 0.70742187 -6.994375 0.53984375 -6.21875 0.3671875 C-4 0 -4 0 0 0 Z " fill="#31AA6B" transform="translate(392,199)"/>
<path d="M0 0 C0 3.77910478 -0.99703962 4.46106101 -3.5 7.1875 C-4.1496875 7.90292969 -4.799375 8.61835938 -5.46875 9.35546875 C-5.9740625 9.89816406 -6.479375 10.44085938 -7 11 C-7.66 10.67 -8.32 10.34 -9 10 C-7.8758824 8.70756532 -6.75067408 7.41607925 -5.625 6.125 C-4.99851563 5.40570313 -4.37203125 4.68640625 -3.7265625 3.9453125 C-2.52573166 2.5923402 -1.2791655 1.2791655 0 0 Z " fill="#39AE71" transform="translate(238,281)"/>
<path d="M0 0 C0.33 0 0.66 0 1 0 C1.390625 5.859375 1.390625 5.859375 1 8 C-0.32 9.32 -1.64 10.64 -3 12 C-2.01 8.04 -1.02 4.08 0 0 Z " fill="#3DAF75" transform="translate(572,656)"/>
<path d="M0 0 C1.90318884 2.85478326 2.4619099 4.41941308 3.125 7.6875 C3.29257812 8.49574219 3.46015625 9.30398438 3.6328125 10.13671875 C3.75398437 10.75160156 3.87515625 11.36648438 4 12 C3.01 12 2.02 12 1 12 C0.67 8.04 0.34 4.08 0 0 Z " fill="#C7F2DE" transform="translate(526,600)"/>
<path d="M0 0 C0.33 0 0.66 0 1 0 C1.390625 5.859375 1.390625 5.859375 1 8 C-0.32 9.32 -1.64 10.64 -3 12 C-2.01 8.04 -1.02 4.08 0 0 Z " fill="#C3F1DB" transform="translate(390,500)"/>
<path d="M0 0 C0.33 0 0.66 0 1 0 C1.3636198 4.24223102 0.5393228 6.58168085 -2 10 C-2.66 10 -3.32 10 -4 10 C-2.8905928 6.51329166 -1.73662334 3.22515763 0 0 Z " fill="#2EAB6A" transform="translate(176,368)"/>
<path d="M0 0 C0.33 0.99 0.66 1.98 1 3 C-0.32 4.32 -1.64 5.64 -3 7 C-3.99 6.67 -4.98 6.34 -6 6 C-4.02 4.02 -2.04 2.04 0 0 Z " fill="#29A966" transform="translate(228,292)"/>
<path d="M0 0 C3 1 3 1 4.1875 2.75 C5.10819096 5.29960574 5.14948718 7.30923081 5 10 C0 2.5 0 2.5 0 0 Z " fill="#29A566" transform="translate(460,369)"/>
</svg>
